<?xml version="1.0" encoding="UTF-8"?>
<svg width="66px" height="57px" viewBox="0 0 66 57" version="1.1" xmlns="http://www.w3.org/2000/svg" xmlns:xlink="http://www.w3.org/1999/xlink">
    <title>noun-penrose-triangle-105006</title>
    <g id="Page-1" stroke="none" stroke-width="1" fill="none" fill-rule="evenodd">
        <g id="noun-penrose-triangle-105006" transform="translate(0.4, 0)" fill="#D8D8D8" fill-rule="nonzero">
            <g id="Group" transform="translate(-0, 0)">
                <path d="M60.9,57 L5.2,57 L0,47.5 L0.2,47 L27.6,0 L37.8,0 L65.6,46.8 L60.9,57 Z M6.4,55 L59.7,55 L63.5,46.9 L36.7,2 L28.8,2 L2.2,47.5 L6.4,55 Z" id="Shape"></path>
                <polygon id="Path" points="6.6 56.8 4.9 55.8 28.2 15 41.9 37.1 40.2 38.1 28.3 18.9"></polygon>
                <polygon id="Path" points="51.9 39 24.6 39 24.6 37 48.4 37 27.4 1.6 29.1 0.6"></polygon>
                <polygon id="Path" points="64.6 48 17.7 48 31.4 22.7 33.1 23.7 21.1 46 64.6 46"></polygon>
            </g>
        </g>
    </g>
</svg>